<svg width="242" height="31" viewBox="0 0 242 31" fill="none" xmlns="http://www.w3.org/2000/svg">
<path d="M56.9526 17.613C56.6632 17.613 56.3788 17.6323 56.0944 17.666C54.5051 14.6268 51.2046 12.5331 47.3861 12.5331C46.5889 12.5331 45.812 12.6248 45.0706 12.7985C44.8624 5.6925 38.7336 0 31.2083 0C23.612 0 17.4476 5.79863 17.3409 12.9914C16.3863 12.6923 15.3708 12.5331 14.3146 12.5331C8.94739 12.5331 4.59575 16.6674 4.59575 21.7666C4.59575 21.9354 4.60083 22.0994 4.61098 22.2683C4.60591 22.2683 4.60083 22.2683 4.59575 22.2683C1.98578 22.2683 -0.121494 24.3378 0.00544992 26.8464C0.122239 29.1958 2.24982 31 4.72777 31H22.4187C23.3936 31 24.1908 30.2619 24.2162 29.3405C24.2772 27.2999 24.333 25.5149 24.3483 24.9553C24.3838 23.4213 23.6374 22.495 22.6218 21.178C21.6113 19.861 21.982 15.8329 22.0582 14.6944C22.1191 13.7537 22.4644 9.98117 22.5812 8.70759C22.6015 8.47121 22.7538 8.28307 22.9163 8.28307C23.0788 8.28307 23.2261 8.47603 23.2413 8.70759C23.2972 9.56147 23.3479 10.8013 23.3479 12.6007C23.3479 17.0534 23.2921 17.502 23.6932 17.502C24.0944 17.502 24.0385 17.0582 24.0385 12.6007C24.0385 10.7916 24.0944 9.55664 24.1451 8.70759C24.1604 8.47121 24.267 8.28307 24.3838 8.28307C24.5006 8.28307 24.6123 8.47603 24.6275 8.70759C24.6834 9.56147 24.7342 10.8013 24.7342 12.6007C24.7342 17.0534 24.6783 17.502 25.0795 17.502C25.4806 17.502 25.4247 17.0582 25.4247 12.6007C25.4247 10.7916 25.4806 9.55664 25.5314 8.70759C25.5466 8.47121 25.6532 8.28307 25.77 8.28307C25.8868 8.28307 25.9985 8.47603 26.0138 8.70759C26.0696 9.56147 26.1204 10.8013 26.1204 12.6007C26.1204 17.0534 26.0645 17.502 26.4657 17.502C26.8668 17.502 26.811 17.0582 26.811 12.6007C26.811 10.7916 26.8668 9.55664 26.9176 8.70759C26.9328 8.47121 27.0649 8.28307 27.2223 8.28307C27.3746 8.28307 27.5168 8.47121 27.5371 8.70759C27.6539 9.98599 27.9992 13.7537 28.0601 14.6944C28.1363 15.8329 28.512 19.861 27.4965 21.178C26.486 22.495 25.7345 23.4213 25.77 24.9553C25.7853 25.5149 25.836 27.2999 25.9021 29.3405C25.9325 30.2667 26.7297 31 27.6996 31H32.7215C33.5999 31 34.321 30.3343 34.3464 29.4997C34.4073 27.435 34.4632 25.6259 34.4784 25.0615C34.4987 24.1352 34.2347 23.4309 33.798 22.7266C32.0715 21.6653 30.8275 18.6839 30.8275 15.1671C30.8275 10.7627 32.7824 7.18799 35.1893 7.18799C37.5961 7.18799 39.5511 10.7579 39.5511 15.1671C39.5511 18.6839 38.307 21.6653 36.5806 22.7266C36.1439 23.4309 35.8799 24.1352 35.9002 25.0615C35.9154 25.6259 35.9662 27.435 36.0322 29.4997C36.0576 30.3343 36.7786 31 37.6571 31H56.785C60.6035 31 63.8583 28.1779 63.9954 24.5501C64.1376 20.739 60.9335 17.613 56.9526 17.613Z" fill="#ED473E"/>
<path d="M83.9165 20.5512C83.9165 21.748 84.3807 23.3481 85.3231 24.3431C86.4764 25.5399 88.0377 25.7416 89.1911 25.7416C90.2882 25.7416 91.4416 25.5399 92.2152 25.0961C92.3137 25.0423 93.2139 24.491 93.8328 23.254L100.936 23.9532C99.895 27.0997 97.7993 28.7401 96.449 29.5469C94.1985 30.8378 91.6948 31.1874 89.0927 31.1874C85.5903 31.1874 82.5099 30.5823 79.8093 28.0006C77.7698 26.0508 76.307 23.1061 76.307 19.4217C76.307 16.2349 77.5026 12.9405 79.8515 10.6412C82.6647 7.95187 86.167 7.45435 88.7832 7.45435C91.3994 7.45435 95.1549 7.89808 98.0243 10.8025C100.795 13.5994 101.316 17.0955 101.316 19.8386V20.5512H83.9165ZM94.3532 16.2618C94.2969 16.0601 93.9312 14.6617 92.8341 13.6666C92.0042 12.9136 90.7946 12.4161 89.2896 12.4161C87.3626 12.4161 86.2092 13.1691 85.4778 13.8683C84.9011 14.4734 84.3807 15.2668 84.1697 16.2618H94.3532Z" fill="#ED473E"/>
<path d="M83.9165 20.5512C83.9165 21.748 84.3807 23.3481 85.3231 24.3431C86.4764 25.5399 88.0377 25.7416 89.1911 25.7416C90.2882 25.7416 91.4416 25.5399 92.2152 25.0961C92.3137 25.0423 93.2139 24.491 93.8328 23.254L100.936 23.9532C99.895 27.0997 97.7993 28.7401 96.449 29.5469C94.1985 30.8378 91.6948 31.1874 89.0927 31.1874C85.5903 31.1874 82.5099 30.5823 79.8093 28.0006C77.7698 26.0508 76.307 23.1061 76.307 19.4217C76.307 16.2349 77.5026 12.9405 79.8515 10.6412C82.6647 7.95187 86.167 7.45435 88.7832 7.45435C91.3994 7.45435 95.1549 7.89808 98.0243 10.8025C100.795 13.5994 101.316 17.0955 101.316 19.8386V20.5512H83.9165ZM94.3532 16.2618C94.2969 16.0601 93.9312 14.6617 92.8341 13.6666C92.0042 12.9136 90.7946 12.4161 89.2896 12.4161C87.3626 12.4161 86.2092 13.1691 85.4778 13.8683C84.9011 14.4734 84.3807 15.2668 84.1697 16.2618H94.3532Z" fill="#ED473E"/>
<path d="M83.9165 20.5512C83.9165 21.748 84.3807 23.3481 85.3231 24.3431C86.4764 25.5399 88.0377 25.7416 89.1911 25.7416C90.2882 25.7416 91.4416 25.5399 92.2152 25.0961C92.3137 25.0423 93.2139 24.491 93.8328 23.254L100.936 23.9532C99.895 27.0997 97.7993 28.7401 96.449 29.5469C94.1985 30.8378 91.6948 31.1874 89.0927 31.1874C85.5903 31.1874 82.5099 30.5823 79.8093 28.0006C77.7698 26.0508 76.307 23.1061 76.307 19.4217C76.307 16.2349 77.5026 12.9405 79.8515 10.6412C82.6647 7.95187 86.167 7.45435 88.7832 7.45435C91.3994 7.45435 95.1549 7.89808 98.0243 10.8025C100.795 13.5994 101.316 17.0955 101.316 19.8386V20.5512H83.9165ZM94.3532 16.2618C94.2969 16.0601 93.9312 14.6617 92.8341 13.6666C92.0042 12.9136 90.7946 12.4161 89.2896 12.4161C87.3626 12.4161 86.2092 13.1691 85.4778 13.8683C84.9011 14.4734 84.3807 15.2668 84.1697 16.2618H94.3532Z" fill="#ED473E"/>
<path d="M128.842 8.18017V30.4341H121.331V27.7448C119.291 30.7434 116.366 31.1871 114.439 31.1871C111.105 31.1871 108.278 30.3937 105.718 27.7986C103.271 25.2975 102.328 22.4065 102.328 19.4618C102.328 15.7236 103.791 12.5234 105.929 10.4795C107.969 8.52977 110.782 7.44061 114.017 7.44061C116 7.44061 119.179 7.88435 121.317 10.6812V8.18017H128.842ZM111.78 15.2127C110.993 15.9657 110.064 17.2565 110.064 19.2601C110.064 21.2636 110.951 22.5544 111.626 23.2537C112.667 24.3025 114.284 25.0017 116.056 25.0017C117.575 25.0017 118.982 24.3966 119.967 23.4554C120.965 22.5545 121.795 21.156 121.795 19.2601C121.795 17.6599 121.162 16.1674 120.079 15.1723C118.926 14.1235 117.266 13.626 115.902 13.626C114.284 13.6125 112.765 14.2714 111.78 15.2127Z" fill="#ED473E"/>
<path d="M128.842 8.18017V30.4341H121.331V27.7448C119.291 30.7434 116.366 31.1871 114.439 31.1871C111.105 31.1871 108.278 30.3937 105.718 27.7986C103.271 25.2975 102.328 22.4065 102.328 19.4618C102.328 15.7236 103.791 12.5234 105.929 10.4795C107.969 8.52977 110.782 7.44061 114.017 7.44061C116 7.44061 119.179 7.88435 121.317 10.6812V8.18017H128.842ZM111.78 15.2127C110.993 15.9657 110.064 17.2565 110.064 19.2601C110.064 21.2636 110.951 22.5544 111.626 23.2537C112.667 24.3025 114.284 25.0017 116.056 25.0017C117.575 25.0017 118.982 24.3966 119.967 23.4554C120.965 22.5545 121.795 21.156 121.795 19.2601C121.795 17.6599 121.162 16.1674 120.079 15.1723C118.926 14.1235 117.266 13.626 115.902 13.626C114.284 13.6125 112.765 14.2714 111.78 15.2127Z" fill="#ED473E"/>
<path d="M128.842 8.18017V30.4341H121.331V27.7448C119.291 30.7434 116.366 31.1871 114.439 31.1871C111.105 31.1871 108.278 30.3937 105.718 27.7986C103.271 25.2975 102.328 22.4065 102.328 19.4618C102.328 15.7236 103.791 12.5234 105.929 10.4795C107.969 8.52977 110.782 7.44061 114.017 7.44061C116 7.44061 119.179 7.88435 121.317 10.6812V8.18017H128.842ZM111.78 15.2127C110.993 15.9657 110.064 17.2565 110.064 19.2601C110.064 21.2636 110.951 22.5544 111.626 23.2537C112.667 24.3025 114.284 25.0017 116.056 25.0017C117.575 25.0017 118.982 24.3966 119.967 23.4554C120.965 22.5545 121.795 21.156 121.795 19.2601C121.795 17.6599 121.162 16.1674 120.079 15.1723C118.926 14.1235 117.266 13.626 115.902 13.626C114.284 13.6125 112.765 14.2714 111.78 15.2127Z" fill="#ED473E"/>
<path d="M139.926 13.9624V30.4209H132.415V13.9624H129.799V8.18042H132.415V1H139.926V8.18042H144.568V13.9624H139.926Z" fill="#ED473E"/>
<path d="M139.926 13.9624V30.4209H132.415V13.9624H129.799V8.18042H132.415V1H139.926V8.18042H144.568V13.9624H139.926Z" fill="#ED473E"/>
<path d="M151.418 20.5512C151.418 21.748 151.882 23.3481 152.824 24.3431C153.978 25.5399 155.539 25.7416 156.692 25.7416C157.789 25.7416 158.943 25.5399 159.716 25.0961C159.815 25.0423 160.701 24.491 161.334 23.254L168.437 23.9532C167.396 27.0997 165.3 28.7401 163.95 29.5469C161.7 30.8378 159.196 31.1874 156.594 31.1874C153.091 31.1874 150.011 30.5823 147.31 28.0006C145.271 26.0508 143.808 23.1061 143.808 19.4217C143.808 16.2349 145.004 12.9405 147.353 10.6412C150.166 7.95187 153.668 7.45435 156.284 7.45435C158.9 7.45435 162.656 7.89808 165.525 10.8025C168.296 13.5994 168.817 17.0955 168.817 19.8386V20.5512H151.418ZM161.854 16.2618C161.798 16.0601 161.432 14.6617 160.335 13.6666C159.505 12.9136 158.296 12.4161 156.791 12.4161C154.864 12.4161 153.71 13.1691 152.979 13.8683C152.402 14.4734 151.882 15.2668 151.671 16.2618H161.854Z" fill="#ED473E"/>
<path d="M151.418 20.5512C151.418 21.748 151.882 23.3481 152.824 24.3431C153.978 25.5399 155.539 25.7416 156.692 25.7416C157.789 25.7416 158.943 25.5399 159.716 25.0961C159.815 25.0423 160.701 24.491 161.334 23.254L168.437 23.9532C167.396 27.0997 165.3 28.7401 163.95 29.5469C161.7 30.8378 159.196 31.1874 156.594 31.1874C153.091 31.1874 150.011 30.5823 147.31 28.0006C145.271 26.0508 143.808 23.1061 143.808 19.4217C143.808 16.2349 145.004 12.9405 147.353 10.6412C150.166 7.95187 153.668 7.45435 156.284 7.45435C158.9 7.45435 162.656 7.89808 165.525 10.8025C168.296 13.5994 168.817 17.0955 168.817 19.8386V20.5512H151.418ZM161.854 16.2618C161.798 16.0601 161.432 14.6617 160.335 13.6666C159.505 12.9136 158.296 12.4161 156.791 12.4161C154.864 12.4161 153.71 13.1691 152.979 13.8683C152.402 14.4734 151.882 15.2668 151.671 16.2618H161.854Z" fill="#ED473E"/>
<path d="M151.418 20.5512C151.418 21.748 151.882 23.3481 152.824 24.3431C153.978 25.5399 155.539 25.7416 156.692 25.7416C157.789 25.7416 158.943 25.5399 159.716 25.0961C159.815 25.0423 160.701 24.491 161.334 23.254L168.437 23.9532C167.396 27.0997 165.3 28.7401 163.95 29.5469C161.7 30.8378 159.196 31.1874 156.594 31.1874C153.091 31.1874 150.011 30.5823 147.31 28.0006C145.271 26.0508 143.808 23.1061 143.808 19.4217C143.808 16.2349 145.004 12.9405 147.353 10.6412C150.166 7.95187 153.668 7.45435 156.284 7.45435C158.9 7.45435 162.656 7.89808 165.525 10.8025C168.296 13.5994 168.817 17.0955 168.817 19.8386V20.5512H151.418ZM161.854 16.2618C161.798 16.0601 161.432 14.6617 160.335 13.6666C159.505 12.9136 158.296 12.4161 156.791 12.4161C154.864 12.4161 153.71 13.1691 152.979 13.8683C152.402 14.4734 151.882 15.2668 151.671 16.2618H161.854Z" fill="#ED473E"/>
<path d="M151.418 20.5512C151.418 21.748 151.882 23.3481 152.824 24.3431C153.978 25.5399 155.539 25.7416 156.692 25.7416C157.789 25.7416 158.943 25.5399 159.716 25.0961C159.815 25.0423 160.701 24.491 161.334 23.254L168.437 23.9532C167.396 27.0997 165.3 28.7401 163.95 29.5469C161.7 30.8378 159.196 31.1874 156.594 31.1874C153.091 31.1874 150.011 30.5823 147.31 28.0006C145.271 26.0508 143.808 23.1061 143.808 19.4217C143.808 16.2349 145.004 12.9405 147.353 10.6412C150.166 7.95187 153.668 7.45435 156.284 7.45435C158.9 7.45435 162.656 7.89808 165.525 10.8025C168.296 13.5994 168.817 17.0955 168.817 19.8386V20.5512H151.418ZM161.854 16.2618C161.798 16.0601 161.432 14.6617 160.335 13.6666C159.505 12.9136 158.296 12.4161 156.791 12.4161C154.864 12.4161 153.71 13.1691 152.979 13.8683C152.402 14.4734 151.882 15.2668 151.671 16.2618H161.854Z" fill="#ED473E"/>
<path d="M170.068 8.18036H177.579V11.6764C178.255 10.4259 179.295 9.28298 180.505 8.58376C181.757 7.83076 183.065 7.62905 184.528 7.62905C185.47 7.62905 186.145 7.72318 186.975 7.97866L186.553 14.7154C185.555 14.2178 184.472 13.922 183.163 13.922C181.546 13.922 180.35 14.4733 179.408 15.4146C177.734 17.1088 177.579 19.5023 177.579 21.3982V30.4343H170.068V8.18036Z" fill="#ED473E"/>
<path d="M170.068 8.18036H177.579V11.6764C178.255 10.4259 179.295 9.28298 180.505 8.58376C181.757 7.83076 183.065 7.62905 184.528 7.62905C185.47 7.62905 186.145 7.72318 186.975 7.97866L186.553 14.7154C185.555 14.2178 184.472 13.922 183.163 13.922C181.546 13.922 180.35 14.4733 179.408 15.4146C177.734 17.1088 177.579 19.5023 177.579 21.3982V30.4343H170.068V8.18036Z" fill="#ED473E"/>
<path d="M170.068 8.18036H177.579V11.6764C178.255 10.4259 179.295 9.28298 180.505 8.58376C181.757 7.83076 183.065 7.62905 184.528 7.62905C185.47 7.62905 186.145 7.72318 186.975 7.97866L186.553 14.7154C185.555 14.2178 184.472 13.922 183.163 13.922C181.546 13.922 180.35 14.4733 179.408 15.4146C177.734 17.1088 177.579 19.5023 177.579 21.3982V30.4343H170.068V8.18036Z" fill="#ED473E"/>
<path d="M209.931 27.5832C207.849 29.5732 204.29 31.1734 199.747 31.1734C195.204 31.1734 191.659 29.5732 189.564 27.5832C187.215 25.3376 186.061 22.1508 186.061 19.3001C186.061 16.4495 187.215 13.2627 189.564 11.0171C191.645 9.02702 195.204 7.42689 199.747 7.42689C204.29 7.42689 207.835 9.02702 209.931 11.0171C212.28 13.2627 213.433 16.4495 213.433 19.3001C213.433 22.1508 212.28 25.3376 209.931 27.5832ZM195.527 15.1183C194.43 16.1671 193.811 17.5117 193.811 19.3136C193.811 21.3574 194.641 22.6617 195.527 23.5089C196.47 24.4098 197.82 25.109 199.803 25.109C201.477 25.109 202.884 24.5577 203.981 23.5089C205.078 22.4601 205.697 21.1154 205.697 19.3136C205.697 17.5117 205.064 16.1671 203.981 15.1183C202.884 14.0694 201.477 13.5181 199.747 13.5181C198.031 13.5181 196.625 14.0694 195.527 15.1183Z" fill="#ED473E"/>
<path d="M209.931 27.5832C207.849 29.5732 204.29 31.1734 199.747 31.1734C195.204 31.1734 191.659 29.5732 189.564 27.5832C187.215 25.3376 186.061 22.1508 186.061 19.3001C186.061 16.4495 187.215 13.2627 189.564 11.0171C191.645 9.02702 195.204 7.42689 199.747 7.42689C204.29 7.42689 207.835 9.02702 209.931 11.0171C212.28 13.2627 213.433 16.4495 213.433 19.3001C213.433 22.1508 212.28 25.3376 209.931 27.5832ZM195.527 15.1183C194.43 16.1671 193.811 17.5117 193.811 19.3136C193.811 21.3574 194.641 22.6617 195.527 23.5089C196.47 24.4098 197.82 25.109 199.803 25.109C201.477 25.109 202.884 24.5577 203.981 23.5089C205.078 22.4601 205.697 21.1154 205.697 19.3136C205.697 17.5117 205.064 16.1671 203.981 15.1183C202.884 14.0694 201.477 13.5181 199.747 13.5181C198.031 13.5181 196.625 14.0694 195.527 15.1183Z" fill="#ED473E"/>
<path d="M209.931 27.5832C207.849 29.5732 204.29 31.1734 199.747 31.1734C195.204 31.1734 191.659 29.5732 189.564 27.5832C187.215 25.3376 186.061 22.1508 186.061 19.3001C186.061 16.4495 187.215 13.2627 189.564 11.0171C191.645 9.02702 195.204 7.42689 199.747 7.42689C204.29 7.42689 207.835 9.02702 209.931 11.0171C212.28 13.2627 213.433 16.4495 213.433 19.3001C213.433 22.1508 212.28 25.3376 209.931 27.5832ZM195.527 15.1183C194.43 16.1671 193.811 17.5117 193.811 19.3136C193.811 21.3574 194.641 22.6617 195.527 23.5089C196.47 24.4098 197.82 25.109 199.803 25.109C201.477 25.109 202.884 24.5577 203.981 23.5089C205.078 22.4601 205.697 21.1154 205.697 19.3136C205.697 17.5117 205.064 16.1671 203.981 15.1183C202.884 14.0694 201.477 13.5181 199.747 13.5181C198.031 13.5181 196.625 14.0694 195.527 15.1183Z" fill="#ED473E"/>
<path d="M238.498 27.5832C236.416 29.5732 232.857 31.1734 228.314 31.1734C223.771 31.1734 220.226 29.5732 218.131 27.5832C215.782 25.3376 214.628 22.1508 214.628 19.3001C214.628 16.4495 215.782 13.2627 218.131 11.0171C220.212 9.02702 223.771 7.42689 228.314 7.42689C232.857 7.42689 236.402 9.02702 238.498 11.0171C240.847 13.2627 242 16.4495 242 19.3001C242 22.1508 240.847 25.3376 238.498 27.5832ZM224.095 15.1183C222.997 16.1671 222.379 17.5117 222.379 19.3136C222.379 21.3574 223.208 22.6617 224.095 23.5089C225.037 24.4098 226.387 25.109 228.37 25.109C230.044 25.109 231.451 24.5577 232.548 23.5089C233.645 22.4601 234.264 21.1154 234.264 19.3136C234.264 17.5117 233.631 16.1671 232.548 15.1183C231.451 14.0694 230.044 13.5181 228.314 13.5181C226.584 13.5181 225.192 14.0694 224.095 15.1183Z" fill="#ED473E"/>
<path d="M238.498 27.5832C236.416 29.5732 232.857 31.1734 228.314 31.1734C223.771 31.1734 220.226 29.5732 218.131 27.5832C215.782 25.3376 214.628 22.1508 214.628 19.3001C214.628 16.4495 215.782 13.2627 218.131 11.0171C220.212 9.02702 223.771 7.42689 228.314 7.42689C232.857 7.42689 236.402 9.02702 238.498 11.0171C240.847 13.2627 242 16.4495 242 19.3001C242 22.1508 240.847 25.3376 238.498 27.5832ZM224.095 15.1183C222.997 16.1671 222.379 17.5117 222.379 19.3136C222.379 21.3574 223.208 22.6617 224.095 23.5089C225.037 24.4098 226.387 25.109 228.37 25.109C230.044 25.109 231.451 24.5577 232.548 23.5089C233.645 22.4601 234.264 21.1154 234.264 19.3136C234.264 17.5117 233.631 16.1671 232.548 15.1183C231.451 14.0694 230.044 13.5181 228.314 13.5181C226.584 13.5181 225.192 14.0694 224.095 15.1183Z" fill="#ED473E"/>
<path d="M238.498 27.5832C236.416 29.5732 232.857 31.1734 228.314 31.1734C223.771 31.1734 220.226 29.5732 218.131 27.5832C215.782 25.3376 214.628 22.1508 214.628 19.3001C214.628 16.4495 215.782 13.2627 218.131 11.0171C220.212 9.02702 223.771 7.42689 228.314 7.42689C232.857 7.42689 236.402 9.02702 238.498 11.0171C240.847 13.2627 242 16.4495 242 19.3001C242 22.1508 240.847 25.3376 238.498 27.5832ZM224.095 15.1183C222.997 16.1671 222.379 17.5117 222.379 19.3136C222.379 21.3574 223.208 22.6617 224.095 23.5089C225.037 24.4098 226.387 25.109 228.37 25.109C230.044 25.109 231.451 24.5577 232.548 23.5089C233.645 22.4601 234.264 21.1154 234.264 19.3136C234.264 17.5117 233.631 16.1671 232.548 15.1183C231.451 14.0694 230.044 13.5181 228.314 13.5181C226.584 13.5181 225.192 14.0694 224.095 15.1183Z" fill="#ED473E"/>
</svg>
